<svg width="1248" height="985" xmlns="http://www.w3.org/2000/svg"><g><path d="M-93,-118L-127,126L50,-66Z" fill="#ffffcf" stroke="#ffffcf"/><path d="M-93,-118L50,-66L171,-80Z" fill="#fffbd0" stroke="#fffbd0"/><path d="M-93,-118L171,-80L661,-87Z" fill="#ffe9b6" stroke="#ffe9b6"/><path d="M-93,-118L661,-87L1146,-124Z" fill="#fecba0" stroke="#fecba0"/><path d="M50,-66L-127,126L83,107Z" fill="#ffffb7" stroke="#ffffb7"/><path d="M50,-66L83,107L166,87Z" fill="#fff6ac" stroke="#fff6ac"/><path d="M50,-66L166,87L171,-80Z" fill="#fff3b5" stroke="#fff3b5"/><path d="M171,-80L166,87L322,-50Z" fill="#ffeba7" stroke="#ffeba7"/><path d="M171,-80L322,-50L537,-65Z" fill="#ffe0a6" stroke="#ffe0a6"/><path d="M171,-80L537,-65L661,-87Z" fill="#ffd59f" stroke="#ffd59f"/><path d="M322,-50L166,87L374,44Z" fill="#ffe597" stroke="#ffe597"/><path d="M322,-50L374,44L537,-65Z" fill="#ffd996" stroke="#ffd996"/><path d="M537,-65L374,44L510,95Z" fill="#ffd489" stroke="#ffd489"/><path d="M537,-65L510,95L717,33Z" fill="#fec985" stroke="#fec985"/><path d="M537,-65L717,33L661,-87Z" fill="#fec390" stroke="#fec390"/><path d="M661,-87L717,33L811,-39Z" fill="#fbb188" stroke="#fbb188"/><path d="M661,-87L811,-39L969,-67Z" fill="#f8a189" stroke="#f8a189"/><path d="M661,-87L969,-67L1146,-124Z" fill="#ec9090" stroke="#ec9090"/><path d="M811,-39L717,33L794,111Z" fill="#faa977" stroke="#faa977"/><path d="M811,-39L794,111L921,117Z" fill="#f79c6d" stroke="#f79c6d"/><path d="M811,-39L921,117L969,-67Z" fill="#ef947a" stroke="#ef947a"/><path d="M969,-67L921,117L1067,199Z" fill="#e5876a" stroke="#e5876a"/><path d="M969,-67L1067,199L1182,123Z" fill="#da806b" stroke="#da806b"/><path d="M969,-67L1182,123L1146,-124Z" fill="#d78083" stroke="#d78083"/><path d="M1146,-124L1182,123L1304,-19Z" fill="#c98081" stroke="#c98081"/><path d="M1146,-124L1304,-19L1457,-71Z" fill="#be8091" stroke="#be8091"/><path d="M1304,-19L1182,123L1316,46Z" fill="#c28076" stroke="#c28076"/><path d="M1304,-19L1316,46L1457,-71Z" fill="#b78085" stroke="#b78085"/><path d="M1457,-71L1316,46L1478,76Z" fill="#b0807f" stroke="#b0807f"/><path d="M-127,126L-130,392L-86,244Z" fill="#fff3a2" stroke="#fff3a2"/><path d="M-127,126L-86,244L83,107Z" fill="#ffffa7" stroke="#ffffa7"/><path d="M83,107L-86,244L27,281Z" fill="#fff998" stroke="#fff998"/><path d="M83,107L27,281L169,189Z" fill="#fff38e" stroke="#fff38e"/><path d="M83,107L169,189L166,87Z" fill="#fff394" stroke="#fff394"/><path d="M166,87L169,189L338,191Z" fill="#ffeb82" stroke="#ffeb82"/><path d="M166,87L338,191L374,44Z" fill="#ffe486" stroke="#ffe486"/><path d="M374,44L338,191L510,95Z" fill="#ffda79" stroke="#ffda79"/><path d="M510,95L338,191L543,257Z" fill="#ffd368" stroke="#ffd368"/><path d="M510,95L543,257L693,234Z" fill="#fec661" stroke="#fec661"/><path d="M510,95L693,234L717,33Z" fill="#fec36d" stroke="#fec36d"/><path d="M717,33L693,234L794,111Z" fill="#fbb066" stroke="#fbb066"/><path d="M794,111L693,234L836,263Z" fill="#faa455" stroke="#faa455"/><path d="M794,111L836,263L921,117Z" fill="#f69b57" stroke="#f69b57"/><path d="M921,117L836,263L981,235Z" fill="#ee8c51" stroke="#ee8c51"/><path d="M921,117L981,235L1067,199Z" fill="#e48456" stroke="#e48456"/><path d="M1182,123L1067,199L1248,208Z" fill="#cf7e5a" stroke="#cf7e5a"/><path d="M1182,123L1248,208L1316,46Z" fill="#c58065" stroke="#c58065"/><path d="M1316,46L1248,208L1464,173Z" fill="#b98063" stroke="#b98063"/><path d="M1316,46L1464,173L1478,76Z" fill="#b0806d" stroke="#b0806d"/><path d="M1478,76L1464,173L1442,546Z" fill="#ab7350" stroke="#ab7350"/><path d="M1478,76L1442,546L1471,1134Z" fill="#aa3933" stroke="#aa3933"/><path d="M-86,244L-130,392L27,281Z" fill="#ffed93" stroke="#ffed93"/><path d="M27,281L-130,392L-47,478Z" fill="#ffe28a" stroke="#ffe28a"/><path d="M27,281L-47,478L129,412Z" fill="#ffde7e" stroke="#ffde7e"/><path d="M27,281L129,412L188,401Z" fill="#ffda74" stroke="#ffda74"/><path d="M27,281L188,401L169,189Z" fill="#ffe37a" stroke="#ffe37a"/><path d="M169,189L188,401L338,191Z" fill="#ffde70" stroke="#ffde70"/><path d="M338,191L188,401L346,406Z" fill="#ffcf5f" stroke="#ffcf5f"/><path d="M338,191L346,406L473,397Z" fill="#ffc656" stroke="#ffc656"/><path d="M338,191L473,397L543,257Z" fill="#ffc659" stroke="#ffc659"/><path d="M543,257L473,397L722,329Z" fill="#feb54d" stroke="#feb54d"/><path d="M543,257L722,329L693,234Z" fill="#fdb252" stroke="#fdb252"/><path d="M693,234L722,329L836,263Z" fill="#fa9f4b" stroke="#fa9f4b"/><path d="M836,263L722,329L834,430Z" fill="#f98d3f" stroke="#f98d3f"/><path d="M836,263L834,430L966,400Z" fill="#f27c3c" stroke="#f27c3c"/><path d="M836,263L966,400L981,235Z" fill="#ec7e43" stroke="#ec7e43"/><path d="M981,235L966,400L1093,359Z" fill="#e26e40" stroke="#e26e40"/><path d="M981,235L1093,359L1067,199Z" fill="#dd734a" stroke="#dd734a"/><path d="M1067,199L1093,359L1248,208Z" fill="#d2744d" stroke="#d2744d"/><path d="M1248,208L1093,359L1299,361Z" fill="#c96d46" stroke="#c96d46"/><path d="M1248,208L1299,361L1464,173Z" fill="#ba7551" stroke="#ba7551"/><path d="M1464,173L1299,361L1436,427Z" fill="#b26b46" stroke="#b26b46"/><path d="M1464,173L1436,427L1442,546Z" fill="#ac6343" stroke="#ac6343"/><path d="M-130,392L-125,687L-47,478Z" fill="#ffcc89" stroke="#ffcc89"/><path d="M129,412L-47,478L71,555Z" fill="#ffd176" stroke="#ffd176"/><path d="M129,412L71,555L238,471Z" fill="#ffc869" stroke="#ffc869"/><path d="M129,412L238,471L188,401Z" fill="#ffcb66" stroke="#ffcb66"/><path d="M188,401L238,471L346,406Z" fill="#ffc55e" stroke="#ffc55e"/><path d="M346,406L238,471L374,554Z" fill="#ffb855" stroke="#ffb855"/><path d="M346,406L374,554L479,473Z" fill="#ffb14c" stroke="#ffb14c"/><path d="M346,406L479,473L473,397Z" fill="#ffb54d" stroke="#ffb54d"/><path d="M473,397L479,473L674,488Z" fill="#fea847" stroke="#fea847"/><path d="M473,397L674,488L722,329Z" fill="#fea747" stroke="#fea747"/><path d="M722,329L674,488L834,430Z" fill="#fb8e3e" stroke="#fb8e3e"/><path d="M834,430L674,488L872,501Z" fill="#f97c37" stroke="#f97c37"/><path d="M834,430L872,501L966,400Z" fill="#f17038" stroke="#f17038"/><path d="M966,400L872,501L1012,507Z" fill="#e96437" stroke="#e96437"/><path d="M966,400L1012,507L1093,359Z" fill="#e0603b" stroke="#e0603b"/><path d="M1093,359L1012,507L1084,553Z" fill="#db5738" stroke="#db5738"/><path d="M1093,359L1084,553L1239,533Z" fill="#d25639" stroke="#d25639"/><path d="M1093,359L1239,533L1299,361Z" fill="#c95e3e" stroke="#c95e3e"/><path d="M1299,361L1239,533L1436,427Z" fill="#bb5b3e" stroke="#bb5b3e"/><path d="M1436,427L1239,533L1442,546Z" fill="#b6513b" stroke="#b6513b"/><path d="M-47,478L-125,687L36,679Z" fill="#ffaf77" stroke="#ffaf77"/><path d="M-47,478L36,679L71,555Z" fill="#ffba72" stroke="#ffba72"/><path d="M71,555L36,679L184,692Z" fill="#ff9e60" stroke="#ff9e60"/><path d="M71,555L184,692L238,471Z" fill="#ffad5d" stroke="#ffad5d"/><path d="M238,471L184,692L374,554Z" fill="#ffa351" stroke="#ffa351"/><path d="M374,554L184,692L368,689Z" fill="#ff8a45" stroke="#ff8a45"/><path d="M374,554L368,689L520,701Z" fill="#ff7e3a" stroke="#ff7e3a"/><path d="M374,554L520,701L479,473Z" fill="#ff9140" stroke="#ff9140"/><path d="M479,473L520,701L674,488Z" fill="#fe8e3e" stroke="#fe8e3e"/><path d="M674,488L520,701L674,669Z" fill="#fe7535" stroke="#fe7535"/><path d="M674,488L674,669L869,623Z" fill="#fb6630" stroke="#fb6630"/><path d="M674,488L869,623L872,501Z" fill="#f96a31" stroke="#f96a31"/><path d="M872,501L869,623L979,627Z" fill="#ef4c2c" stroke="#ef4c2c"/><path d="M872,501L979,627L1012,507Z" fill="#e95130" stroke="#e95130"/><path d="M1012,507L979,627L1084,553Z" fill="#e04130" stroke="#e04130"/><path d="M1084,553L979,627L1139,721Z" fill="#db2a29" stroke="#db2a29"/><path d="M1084,553L1139,721L1239,533Z" fill="#d0332d" stroke="#d0332d"/><path d="M1239,533L1139,721L1322,662Z" fill="#c7292b" stroke="#c7292b"/><path d="M1239,533L1322,662L1393,628Z" fill="#bc322f" stroke="#bc322f"/><path d="M1239,533L1393,628L1442,546Z" fill="#b73d34" stroke="#b73d34"/><path d="M1442,546L1393,628L1441,784Z" fill="#af242c" stroke="#af242c"/><path d="M1442,546L1441,784L1471,1134Z" fill="#9d0030" stroke="#9d0030"/><path d="M-125,687L-58,1104L-21,971Z" fill="#e7807c" stroke="#e7807c"/><path d="M-125,687L-21,971L-20,814Z" fill="#f08078" stroke="#f08078"/><path d="M-125,687L-20,814L36,679Z" fill="#f99473" stroke="#f99473"/><path d="M36,679L-20,814L133,878Z" fill="#f38268" stroke="#f38268"/><path d="M36,679L133,878L184,692Z" fill="#f6845d" stroke="#f6845d"/><path d="M184,692L133,878L222,811Z" fill="#f27555" stroke="#f27555"/><path d="M184,692L222,811L368,689Z" fill="#f87b4b" stroke="#f87b4b"/><path d="M368,689L222,811L336,860Z" fill="#f36b47" stroke="#f36b47"/><path d="M368,689L336,860L514,855Z" fill="#f25e3d" stroke="#f25e3d"/><path d="M368,689L514,855L520,701Z" fill="#f66439" stroke="#f66439"/><path d="M520,701L514,855L626,848Z" fill="#f15137" stroke="#f15137"/><path d="M520,701L626,848L674,669Z" fill="#f75a34" stroke="#f75a34"/><path d="M674,669L626,848L836,841Z" fill="#f03d2e" stroke="#f03d2e"/><path d="M674,669L836,841L869,623Z" fill="#f43d27" stroke="#f43d27"/><path d="M869,623L836,841L945,787Z" fill="#e92526" stroke="#e92526"/><path d="M869,623L945,787L979,627Z" fill="#ea2e25" stroke="#ea2e25"/><path d="M979,627L945,787L1139,721Z" fill="#dc1a27" stroke="#dc1a27"/><path d="M1139,721L945,787L1151,862Z" fill="#ce072a" stroke="#ce072a"/><path d="M1139,721L1151,862L1303,835Z" fill="#bd032c" stroke="#bd032c"/><path d="M1139,721L1303,835L1322,662Z" fill="#bc122b" stroke="#bc122b"/><path d="M1322,662L1303,835L1441,784Z" fill="#ae0d2d" stroke="#ae0d2d"/><path d="M1322,662L1441,784L1393,628Z" fill="#b11c2c" stroke="#b11c2c"/><path d="M-20,814L-21,971L133,878Z" fill="#ea7d6d" stroke="#ea7d6d"/><path d="M133,878L-21,971L122,988Z" fill="#e57967" stroke="#e57967"/><path d="M133,878L122,988L175,925Z" fill="#e6735e" stroke="#e6735e"/><path d="M133,878L175,925L222,811Z" fill="#eb7057" stroke="#eb7057"/><path d="M222,811L175,925L336,860Z" fill="#ec694f" stroke="#ec694f"/><path d="M336,860L175,925L408,981Z" fill="#e7644a" stroke="#e7644a"/><path d="M336,860L408,981L514,855Z" fill="#e9593e" stroke="#e9593e"/><path d="M514,855L408,981L485,993Z" fill="#e5553d" stroke="#e5553d"/><path d="M514,855L485,993L653,965Z" fill="#e54d3a" stroke="#e54d3a"/><path d="M514,855L653,965L626,848Z" fill="#e94937" stroke="#e94937"/><path d="M626,848L653,965L836,841Z" fill="#e73731" stroke="#e73731"/><path d="M836,841L653,965L812,971Z" fill="#e12b2d" stroke="#e12b2d"/><path d="M836,841L812,971L1012,997Z" fill="#d8162a" stroke="#d8162a"/><path d="M836,841L1012,997L945,787Z" fill="#d81029" stroke="#d81029"/><path d="M945,787L1012,997L1151,862Z" fill="#ca012b" stroke="#ca012b"/><path d="M1151,862L1012,997L1166,1026Z" fill="#ba002e" stroke="#ba002e"/><path d="M1151,862L1166,1026L1262,984Z" fill="#b0002f" stroke="#b0002f"/><path d="M1151,862L1262,984L1303,835Z" fill="#b0002e" stroke="#b0002e"/><path d="M1303,835L1262,984L1394,944Z" fill="#a40030" stroke="#a40030"/><path d="M1303,835L1394,944L1441,784Z" fill="#a3002f" stroke="#a3002f"/><path d="M1441,784L1394,944L1471,1134Z" fill="#930032" stroke="#930032"/><path d="M-21,971L-58,1104L122,988Z" fill="#de7e72" stroke="#de7e72"/><path d="M122,988L-58,1104L126,1171Z" fill="#d87a6c" stroke="#d87a6c"/><path d="M122,988L126,1171L269,1174Z" fill="#d5705d" stroke="#d5705d"/><path d="M122,988L269,1174L338,1122Z" fill="#d76954" stroke="#d76954"/><path d="M122,988L338,1122L175,925Z" fill="#de6c55" stroke="#de6c55"/><path d="M175,925L338,1122L408,981Z" fill="#df634c" stroke="#df634c"/><path d="M408,981L338,1122L485,993Z" fill="#dc5a42" stroke="#dc5a42"/><path d="M485,993L338,1122L541,1167Z" fill="#d75641" stroke="#d75641"/><path d="M485,993L541,1167L653,965Z" fill="#db4c3c" stroke="#db4c3c"/><path d="M653,965L541,1167L634,1180Z" fill="#d5483b" stroke="#d5483b"/><path d="M653,965L634,1180L812,971Z" fill="#d93834" stroke="#d93834"/><path d="M812,971L634,1180L881,1179Z" fill="#d02931" stroke="#d02931"/><path d="M812,971L881,1179L917,1154Z" fill="#cb182d" stroke="#cb182d"/><path d="M812,971L917,1154L1012,997Z" fill="#cb122c" stroke="#cb122c"/><path d="M1012,997L917,1154L1163,1129Z" fill="#b70230" stroke="#b70230"/><path d="M1012,997L1163,1129L1166,1026Z" fill="#b10030" stroke="#b10030"/><path d="M1166,1026L1163,1129L1299,1086Z" fill="#a30032" stroke="#a30032"/><path d="M1166,1026L1299,1086L1262,984Z" fill="#a30031" stroke="#a30031"/><path d="M1262,984L1299,1086L1394,944Z" fill="#9c0032" stroke="#9c0032"/><path d="M1394,944L1299,1086L1471,1134Z" fill="#8f0034" stroke="#8f0034"/><path d="M269,1174L634,1180L541,1167Z" fill="#d05342" stroke="#d05342"/><path d="M269,1174L541,1167L338,1122Z" fill="#d15c47" stroke="#d15c47"/><path d="M881,1179L1471,1134L1163,1129Z" fill="#a10033" stroke="#a10033"/><path d="M881,1179L1163,1129L917,1154Z" fill="#b70830" stroke="#b70830"/><path d="M1163,1129L1471,1134L1299,1086Z" fill="#930034" stroke="#930034"/></g></svg>